<?xml version="1.0" encoding="UTF-8" standalone="no"?>
<!DOCTYPE svg PUBLIC "-//W3C//DTD SVG 1.1//EN" "http://www.w3.org/Graphics/SVG/1.1/DTD/svg11.dtd">
<svg width="100%" height="100%" viewBox="0 0 1080 1080" version="1.1" xmlns="http://www.w3.org/2000/svg" xmlns:xlink="http://www.w3.org/1999/xlink" xml:space="preserve" xmlns:serif="http://www.serif.com/" style="fill-rule:evenodd;clip-rule:evenodd;stroke-linejoin:round;stroke-miterlimit:2;">
    <g transform="matrix(7.93487,0,0,13.5804,-278.967,-921.379)">
        <path d="M166.224,107.609C166.224,127.929 137.989,144.427 103.211,144.427C68.433,144.427 40.198,127.929 40.198,107.609C40.198,87.289 68.433,70.792 103.211,70.792C137.989,70.792 166.224,87.289 166.224,107.609Z" style="fill:rgb(9,204,197);"/>
    </g>
    <g transform="matrix(0.915319,0,0,0.915319,45.7279,44.3329)">
        <g transform="matrix(1.78119,0,0,1.78119,-64.9234,179.347)">
            <path d="M599.33,157.774L599.33,272.69C599.33,304.402 573.584,330.148 541.872,330.148L326.631,330.148L183.789,428.648L248.717,330.148L137.362,330.148C105.65,330.148 79.904,304.402 79.904,272.69L79.904,157.774C79.904,126.062 105.65,100.316 137.362,100.316L541.872,100.316C573.584,100.316 599.33,126.062 599.33,157.774Z" style="fill:white;"/>
        </g>
        <g transform="matrix(1,0,0,1,462.924,397.937)">
            <circle cx="271.544" cy="229.251" r="53.322" style="fill:rgb(9,204,197);"/>
        </g>
        <g transform="matrix(1,0,0,1,263.853,397.937)">
            <circle cx="271.544" cy="229.251" r="53.322" style="fill:rgb(9,204,197);"/>
        </g>
        <g transform="matrix(1,0,0,1,64.7831,397.937)">
            <circle cx="271.544" cy="229.251" r="53.322" style="fill:rgb(9,204,197);"/>
        </g>
        <g transform="matrix(1,0,0,1,72.9181,364.071)">
            <circle cx="271.544" cy="229.251" r="53.322"/>
        </g>
        <g transform="matrix(1,0,0,1,271.263,367.867)">
            <circle cx="271.544" cy="229.251" r="53.322"/>
        </g>
        <g transform="matrix(1,0,0,1,-114.682,-21.1875)">
            <path d="M843.404,459.068L869.453,287.786C874.611,254.43 878.775,230.587 881.944,216.257C886.255,196.758 894.728,182.677 907.363,174.013C919.998,165.349 934.654,162.862 951.334,166.55C971.537,171.017 983.499,180.993 987.221,196.477C990.942,211.962 989.894,232.859 984.076,259.17C980.647,274.675 976.345,290.232 971.168,305.843L917.6,476.215C911.384,496.524 904.354,511.602 896.509,521.448C888.664,531.294 878.517,534.841 866.066,532.088C853.38,529.282 845.753,521.99 843.183,510.21C840.613,498.431 840.687,481.383 843.404,459.068Z" style="fill:rgb(9,204,197);fill-rule:nonzero;"/>
        </g>
        <g transform="matrix(2.5058,0.554113,-0.554113,2.5058,295.697,-382.555)">
            <path d="M236.982,263.498L232.482,196.138C231.638,183.013 231.217,173.592 231.217,167.873C231.217,160.092 233.256,154.021 237.334,149.662C241.412,145.302 246.779,143.123 253.435,143.123C261.498,143.123 266.888,145.912 269.607,151.49C272.326,157.068 273.685,165.107 273.685,175.607C273.685,181.795 273.357,188.076 272.701,194.451L266.654,263.779C265.998,272.029 264.592,278.357 262.435,282.763C260.279,287.17 256.717,289.373 251.748,289.373C246.685,289.373 243.17,287.24 241.201,282.974C239.232,278.709 237.826,272.217 236.982,263.498ZM252.592,356.029C246.873,356.029 241.881,354.177 237.615,350.474C233.349,346.771 231.217,341.592 231.217,334.935C231.217,329.123 233.256,324.177 237.334,320.099C241.412,316.021 246.404,313.982 252.31,313.982C258.217,313.982 263.256,316.021 267.427,320.099C271.599,324.177 273.685,329.123 273.685,334.935C273.685,341.498 271.576,346.654 267.357,350.404C263.138,354.154 258.217,356.029 252.592,356.029Z" style="fill-rule:nonzero;"/>
        </g>
    </g>
</svg>
